<svg xmlns="http://www.w3.org/2000/svg" width="430" height="430" style="width:100%;height:100%;transform:translate3d(0,0,0);content-visibility:visible" viewBox="0 0 430 430"><defs><clipPath id="d"><path d="M0 0h430v430H0z"/></clipPath><clipPath id="i"><path d="M0 0h430v430H0z"/></clipPath><clipPath id="h"><path d="M0 0h430v430H0z"/></clipPath><clipPath id="g"><path d="M0 0h430v430H0z"/></clipPath><clipPath id="e"><path d="M0 0h430v430H0z"/></clipPath><clipPath id="c"><path d="M0 0h430v430H0z"/></clipPath><filter id="a" width="100%" height="100%" x="0%" y="0%" filterUnits="objectBoundingBox"><feComponentTransfer in="SourceGraphic"><feFuncA tableValues="1.0 0.0" type="table"/></feComponentTransfer></filter><mask id="f" mask-type="alpha"><g filter="url(#a)"><path fill="#fff" d="M0 0h430v430H0z" opacity="0"/><use xmlns:ns1="http://www.w3.org/1999/xlink" ns1:href="#b"/></g></mask><g id="b" clip-path="url(#c)" style="display:none"><path style="display:none"/><path style="display:none"/><path style="display:none"/></g></defs><g clip-path="url(#d)"><g clip-path="url(#e)" style="display:none"><g mask="url(#f)" style="display:none"><path fill="none" class="primary"/></g><g fill="none" style="display:none"><path class="secondary"/><path class="primary"/></g><g fill="none" style="display:none"><path class="secondary"/><path class="primary"/></g><g fill="none" style="display:none"><path class="secondary"/><path class="primary"/></g><path fill="none" class="primary" style="display:none"/></g><g fill="none" clip-path="url(#g)" style="display:none"><g style="display:none"><path class="secondary"/><path class="primary"/></g><g style="display:none"><path class="secondary"/><path class="primary"/></g><g style="display:none"><path class="secondary"/><path class="primary"/></g><g style="display:none"><path class="primary"/><path class="primary"/></g></g><g fill="none" clip-path="url(#h)" style="display:block"><path stroke="#121331" stroke-linejoin="round" stroke-width="12" d="M-20-57.5v115h40v-115h-40z" class="primary" style="display:block" transform="translate(215 342.5)"/><path stroke="#121331" stroke-linejoin="round" stroke-width="12" d="M-3.909-158.162v109.878l-77.695-77.696-28.284 28.285L-32.193-20h-109.878v40h109.878l-77.695 77.696 28.284 28.284 77.695-77.695v109.877h40V48.284l77.696 77.696 28.284-28.284-86.569-86.57-.119-.118L44.376 0l11.895-11.896.244-.243 85.556-85.556-28.284-28.285-77.696 77.696v-109.878h-40z" class="primary" style="display:block" transform="rotate(90 21.465 193.535)"/><path class="primary" style="display:none"/></g><g fill="none" clip-path="url(#i)" style="display:none"><path class="primary" style="display:none"/><path class="primary" style="display:none"/><path class="primary" style="display:none"/><path class="primary" style="display:none"/><path class="primary" style="display:none"/><path class="primary" style="display:none"/><path class="primary" style="display:none"/><path class="primary" style="display:none"/><path class="primary" style="display:none"/></g></g></svg>